<?xml version="1.0" standalone="no"?>
<!DOCTYPE svg PUBLIC "-//W3C//DTD SVG 20010904//EN"
 "http://www.w3.org/TR/2001/REC-SVG-20010904/DTD/svg10.dtd">
<svg version="1.0" xmlns="http://www.w3.org/2000/svg"
 width="140.000000pt" height="188.000000pt" viewBox="0 0 140.000000 188.000000"
 preserveAspectRatio="xMidYMid meet">
<metadata>
Created by potrace 1.15, written by Peter Selinger 2001-2017
</metadata>
<g transform="translate(0.000000,188.000000) scale(0.100000,-0.100000)"
fill="#000000" stroke="none">
<path d="M607 1739 c-21 -12 -47 -61 -47 -89 0 -62 65 -117 125 -106 53 10 85
50 85 105 0 65 -36 101 -101 101 -24 0 -52 -5 -62 -11z"/>
<path d="M524 1496 c-34 -15 -28 -2 -143 -311 -52 -140 -58 -163 -47 -180 16
-24 58 -31 73 -13 6 7 33 71 59 142 l49 130 3 -549 c1 -384 5 -552 13 -562 15
-17 54 -17 69 2 8 10 18 125 31 352 10 186 19 346 19 356 0 20 40 24 40 5 1
-101 32 -433 41 -444 15 -19 53 -18 69 2 10 11 15 111 19 422 l6 407 43 -115
c24 -63 50 -125 58 -137 25 -40 84 -24 84 22 0 34 -158 438 -180 460 -18 18
-35 20 -148 23 -92 1 -136 -2 -158 -12z"/>
</g>
</svg>
